<?xml version="1.0" encoding="UTF-8" standalone="no"?>
<!-- Created with Inkscape (http://www.inkscape.org/) -->

<svg
   width="90.681671mm"
   height="59.823303mm"
   viewBox="0 0 90.681671 59.823303"
   version="1.1"
   id="svg8496"
   sodipodi:docname="ext_chamfer_angle.svg"
   inkscape:version="1.1 (c68e22c387, 2021-05-23)"
   xmlns:inkscape="http://www.inkscape.org/namespaces/inkscape"
   xmlns:sodipodi="http://sodipodi.sourceforge.net/DTD/sodipodi-0.dtd"
   xmlns="http://www.w3.org/2000/svg"
   xmlns:svg="http://www.w3.org/2000/svg">
  <sodipodi:namedview
     id="namedview8498"
     pagecolor="#353535"
     bordercolor="#666666"
     borderopacity="1.0"
     inkscape:pageshadow="2"
     inkscape:pageopacity="0"
     inkscape:pagecheckerboard="0"
     inkscape:document-units="mm"
     showgrid="false"
     lock-margins="true"
     inkscape:zoom="1"
     inkscape:cx="88"
     inkscape:cy="153.5"
     inkscape:window-width="1920"
     inkscape:window-height="1017"
     inkscape:window-x="-8"
     inkscape:window-y="-8"
     inkscape:window-maximized="1"
     inkscape:current-layer="layer1"
     fit-margin-top="1"
     fit-margin-left="1"
     fit-margin-right="1"
     fit-margin-bottom="1" />
  <defs
     id="defs8493">
    <marker
       style="overflow:visible;"
       id="Arrow1Lend"
       refX="0.0"
       refY="0.0"
       orient="auto"
       inkscape:stockid="Arrow1Lend"
       inkscape:isstock="true">
      <path
         transform="scale(0.8) rotate(180) translate(12.5,0)"
         style="fill-rule:evenodd;fill:context-stroke;stroke:context-stroke;stroke-width:1.0pt;"
         d="M 0.0,0.0 L 5.0,-5.0 L -12.5,0.0 L 5.0,5.0 L 0.0,0.0 z "
         id="path1920" />
    </marker>
    <marker
       style="overflow:visible;"
       id="marker106809"
       refX="0.0"
       refY="0.0"
       orient="auto"
       inkscape:stockid="Arrow1Mend"
       inkscape:isstock="true">
      <path
         transform="scale(0.4) rotate(180) translate(10,0)"
         style="fill-rule:evenodd;fill:context-stroke;stroke:context-stroke;stroke-width:1.0pt;"
         d="M 0.0,0.0 L 5.0,-5.0 L -12.5,0.0 L 5.0,5.0 L 0.0,0.0 z "
         id="path106557" />
    </marker>
    <linearGradient
       id="linearGradient104341"
       inkscape:swatch="solid">
      <stop
         style="stop-color:#bfbfbf;stop-opacity:1;"
         offset="0"
         id="stop104339" />
    </linearGradient>
    <marker
       style="overflow:visible"
       id="Arrow1Mend"
       refX="0"
       refY="0"
       orient="auto"
       inkscape:stockid="Arrow1Mend"
       inkscape:isstock="true">
      <path
         transform="matrix(-0.4,0,0,-0.4,-4,0)"
         style="fill:context-stroke;fill-rule:evenodd;stroke:context-stroke;stroke-width:1pt"
         d="M 0,0 5,-5 -12.5,0 5,5 Z"
         id="path9195" />
    </marker>
    <marker
       style="overflow:visible"
       id="marker9854"
       refX="0"
       refY="0"
       orient="auto"
       inkscape:stockid="Arrow1Mstart"
       inkscape:isstock="true">
      <path
         transform="matrix(0.4,0,0,0.4,4,0)"
         style="fill:context-stroke;fill-rule:evenodd;stroke:context-stroke;stroke-width:1pt"
         d="M 0,0 5,-5 -12.5,0 5,5 Z"
         id="path9852" />
    </marker>
    <marker
       style="overflow:visible"
       id="marker11075"
       refX="0"
       refY="0"
       orient="auto"
       inkscape:stockid="Arrow1Mstart"
       inkscape:isstock="true">
      <path
         transform="matrix(0.4,0,0,0.4,4,0)"
         style="fill:context-stroke;fill-rule:evenodd;stroke:context-stroke;stroke-width:1pt"
         d="M 0,0 5,-5 -12.5,0 5,5 Z"
         id="path11073" />
    </marker>
    <marker
       style="overflow:visible"
       id="marker8477"
       refX="0"
       refY="0"
       orient="auto"
       inkscape:stockid="Arrow1Mstart"
       inkscape:isstock="true">
      <path
         transform="matrix(0.4,0,0,0.4,4,0)"
         style="fill:context-stroke;fill-rule:evenodd;stroke:context-stroke;stroke-width:1pt"
         d="M 0,0 5,-5 -12.5,0 5,5 Z"
         id="path8475" />
    </marker>
    <marker
       style="overflow:visible"
       refX="0"
       refY="0"
       orient="auto"
       inkscape:stockid="marker8477447"
       inkscape:isstock="true"
       id="marker8477447">
      <path
         transform="matrix(0.4,0,0,0.4,4,0)"
         style="fill:#bfbfbf;fill-rule:evenodd;stroke:#bfbfbf;stroke-width:1pt"
         d="M 0,0 5,-5 -12.5,0 5,5 Z"
         id="path23962" />
    </marker>
    <marker
       style="overflow:visible;"
       refX="0.0"
       refY="0.0"
       orient="auto"
       inkscape:stockid="marker1068094303"
       inkscape:isstock="true"
       id="marker1068094303">
      <path
         transform="scale(0.4) rotate(180) translate(10,0)"
         style="fill-rule:evenodd;fill:#bfbfbf;stroke:#bfbfbf;stroke-width:1.0pt"
         d="M 0.0,0.0 L 5.0,-5.0 L -12.5,0.0 L 5.0,5.0 L 0.0,0.0 z "
         id="path23965" />
    </marker>
    <marker
       style="overflow:visible"
       refX="0"
       refY="0"
       orient="auto"
       inkscape:stockid="marker84774263"
       inkscape:isstock="true"
       id="marker84774263">
      <path
         transform="matrix(0.4,0,0,0.4,4,0)"
         style="fill:#bfbfbf;fill-rule:evenodd;stroke:#bfbfbf;stroke-width:1pt"
         d="M 0,0 5,-5 -12.5,0 5,5 Z"
         id="path23968" />
    </marker>
    <marker
       style="overflow:visible"
       refX="0"
       refY="0"
       orient="auto"
       inkscape:stockid="marker84777307"
       inkscape:isstock="true"
       id="marker84777307">
      <path
         transform="matrix(0.4,0,0,0.4,4,0)"
         style="fill:#bfbfbf;fill-rule:evenodd;stroke:#bfbfbf;stroke-width:1pt"
         d="M 0,0 5,-5 -12.5,0 5,5 Z"
         id="path23971" />
    </marker>
    <marker
       style="overflow:visible"
       refX="0"
       refY="0"
       orient="auto"
       inkscape:stockid="marker84771905"
       inkscape:isstock="true"
       id="marker84771905-5">
      <path
         transform="matrix(0.4,0,0,0.4,4,0)"
         style="fill:#bfbfbf;fill-rule:evenodd;stroke:#bfbfbf;stroke-width:1pt"
         d="M 0,0 5,-5 -12.5,0 5,5 Z"
         id="path36123-8" />
    </marker>
    <marker
       style="overflow:visible"
       refX="0"
       refY="0"
       orient="auto"
       inkscape:stockid="marker8477447"
       inkscape:isstock="true"
       id="marker8477447-0">
      <path
         transform="matrix(0.4,0,0,0.4,4,0)"
         style="fill:#bfbfbf;fill-rule:evenodd;stroke:#bfbfbf;stroke-width:1pt"
         d="M 0,0 5,-5 -12.5,0 5,5 Z"
         id="path23962-4" />
    </marker>
    <marker
       style="overflow:visible"
       refX="0"
       refY="0"
       orient="auto"
       inkscape:stockid="marker8477447"
       inkscape:isstock="true"
       id="marker8477447-2">
      <path
         transform="matrix(0.4,0,0,0.4,4,0)"
         style="fill:#bfbfbf;fill-rule:evenodd;stroke:#bfbfbf;stroke-width:1pt"
         d="M 0,0 5,-5 -12.5,0 5,5 Z"
         id="path23962-7" />
    </marker>
    <marker
       style="overflow:visible"
       refX="0"
       refY="0"
       orient="auto"
       inkscape:stockid="marker84774475303"
       inkscape:isstock="true"
       id="marker84774475303">
      <path
         transform="matrix(0.4,0,0,0.4,4,0)"
         style="fill:#ff5722;fill-rule:evenodd;stroke:#ff5722;stroke-width:1pt"
         d="M 0,0 5,-5 -12.5,0 5,5 Z"
         id="path9462" />
    </marker>
    <marker
       style="overflow:visible"
       refX="0"
       refY="0"
       orient="auto"
       inkscape:stockid="marker8477447-07830"
       inkscape:isstock="true"
       id="marker8477447-07830">
      <path
         transform="matrix(0.4,0,0,0.4,4,0)"
         style="fill:#ff5722;fill-rule:evenodd;stroke:#ff5722;stroke-width:1pt"
         d="M 0,0 5,-5 -12.5,0 5,5 Z"
         id="path9586" />
    </marker>
    <marker
       style="overflow:visible"
       refX="0"
       refY="0"
       orient="auto"
       inkscape:stockid="marker847773078180"
       inkscape:isstock="true"
       id="marker847773078180">
      <path
         transform="matrix(0.4,0,0,0.4,4,0)"
         style="fill:#ff5722;fill-rule:evenodd;stroke:#ff5722;stroke-width:1pt"
         d="M 0,0 5,-5 -12.5,0 5,5 Z"
         id="path9710" />
    </marker>
    <marker
       style="overflow:visible;"
       refX="0.0"
       refY="0.0"
       orient="auto"
       inkscape:stockid="marker1068093829"
       inkscape:isstock="true"
       id="marker1068093829">
      <path
         transform="scale(0.4) rotate(180) translate(10,0)"
         style="fill-rule:evenodd;fill:#ff5722;stroke:#ff5722;stroke-width:1.0pt"
         d="M 0.0,0.0 L 5.0,-5.0 L -12.5,0.0 L 5.0,5.0 L 0.0,0.0 z "
         id="path9713" />
    </marker>
    <marker
       style="overflow:visible;"
       refX="0.0"
       refY="0.0"
       orient="auto"
       inkscape:stockid="marker10680943036746"
       inkscape:isstock="true"
       id="marker10680943036746">
      <path
         transform="scale(0.4) rotate(180) translate(10,0)"
         style="fill-rule:evenodd;fill:#ff5722;stroke:#ff5722;stroke-width:1.0pt"
         d="M 0.0,0.0 L 5.0,-5.0 L -12.5,0.0 L 5.0,5.0 L 0.0,0.0 z "
         id="path9853" />
    </marker>
    <marker
       style="overflow:visible"
       refX="0"
       refY="0"
       orient="auto"
       inkscape:stockid="marker847742638615"
       inkscape:isstock="true"
       id="marker847742638615">
      <path
         transform="matrix(0.4,0,0,0.4,4,0)"
         style="fill:#ff5722;fill-rule:evenodd;stroke:#ff5722;stroke-width:1pt"
         d="M 0,0 5,-5 -12.5,0 5,5 Z"
         id="path9856" />
    </marker>
    <marker
       style="overflow:visible;"
       refX="0.0"
       refY="0.0"
       orient="auto"
       inkscape:stockid="marker10680943036746600"
       inkscape:isstock="true"
       id="marker10680943036746600">
      <path
         transform="scale(0.4) rotate(180) translate(10,0)"
         style="fill-rule:evenodd;fill:#ff5722;stroke:#ff5722;stroke-width:1.0pt"
         d="M 0.0,0.0 L 5.0,-5.0 L -12.5,0.0 L 5.0,5.0 L 0.0,0.0 z "
         id="path10004" />
    </marker>
    <marker
       style="overflow:visible"
       refX="0"
       refY="0"
       orient="auto"
       inkscape:stockid="marker8477426386155764"
       inkscape:isstock="true"
       id="marker8477426386155764">
      <path
         transform="matrix(0.4,0,0,0.4,4,0)"
         style="fill:#ff5722;fill-rule:evenodd;stroke:#ff5722;stroke-width:1pt"
         d="M 0,0 5,-5 -12.5,0 5,5 Z"
         id="path10007" />
    </marker>
  </defs>
  <g
     inkscape:label="Слой 1"
     inkscape:groupmode="layer"
     id="layer1"
     transform="translate(-40.648749,-57.930016)">
    <path
       style="fill:none;stroke:#bfbfbf;stroke-width:1.32291667;stroke-linecap:square;stroke-linejoin:round;stroke-miterlimit:4;stroke-dasharray:none;stroke-opacity:1;paint-order:markers fill stroke"
       id="path2587"
       sodipodi:type="arc"
       sodipodi:cx="61.546749"
       sodipodi:cy="96.808014"
       sodipodi:rx="16.838541"
       sodipodi:ry="16.838541"
       sodipodi:start="5.427974"
       sodipodi:end="0.85521133"
       sodipodi:arc-type="arc"
       d="M 72.593826,84.099806 A 16.838541,16.838541 0 0 1 78.38529,96.808014 16.838541,16.838541 0 0 1 72.593826,109.51622"
       sodipodi:open="true" />
    <path
       style="fill:none;fill-opacity:1;stroke:#ff5722;stroke-width:0.529;stroke-linecap:butt;stroke-linejoin:miter;stroke-miterlimit:4;stroke-dasharray:none;stroke-opacity:1;marker-start:url(#marker8477447-07830)"
       d="M 77.688572,87.531977 83.937621,83.92408"
       id="path1159-8"
       inkscape:export-filename="C:\Users\V\Desktop\path3043.png"
       inkscape:export-xdpi="300"
       inkscape:export-ydpi="300"
       inkscape:transform-center-x="3.183213"
       inkscape:transform-center-y="1.7755556" />
    <path
       id="path1161"
       style="fill:none;stroke:#bfbfbf;stroke-width:1.32291995;stroke-linecap:round;stroke-linejoin:miter;stroke-miterlimit:4;stroke-dasharray:none;stroke-opacity:1;paint-order:normal"
       d="M 72.156265,83.803381 H 42.310209"
       inkscape:export-filename="C:\Users\V\Desktop\path3043.png"
       inkscape:export-xdpi="300"
       inkscape:export-ydpi="300" />
    <path
       id="path8261"
       style="font-variation-settings:'wdth' 100, 'wght' 400;fill:none;fill-rule:evenodd;stroke:#bfbfbf;stroke-width:1.32292;stroke-linecap:round;stroke-miterlimit:4;stroke-dasharray:none;stroke-opacity:1"
       d="m 98.873965,61.453076 c 0,0 0,0 0,0 l -2.405388,27.437316 a -6.2468045,6.2468045 0 0 0 9.345373,5.956003 l 23.85501,-13.767022" />
    <path
       id="path1896"
       style="fill:none;stroke:#bfbfbf;stroke-width:1.32292;stroke-linecap:round;stroke-linejoin:miter;stroke-miterlimit:4;stroke-dasharray:none;stroke-opacity:1;paint-order:normal"
       d="M 72.156265,109.73262 H 42.310209"
       inkscape:export-filename="C:\Users\V\Desktop\path3043.png"
       inkscape:export-xdpi="300"
       inkscape:export-ydpi="300" />
  </g>
</svg>
