<?xml version="1.0" encoding="UTF-8" standalone="no"?>
<!-- Created with Inkscape (http://www.inkscape.org/) -->

<svg
   sodipodi:docname="111.svg"
   inkscape:version="1.1 (c68e22c387, 2021-05-23)"
   id="svg918"
   version="1.1"
   viewBox="0 0 46.675179 37.970699"
   height="37.970699mm"
   width="46.675179mm"
   xmlns:inkscape="http://www.inkscape.org/namespaces/inkscape"
   xmlns:sodipodi="http://sodipodi.sourceforge.net/DTD/sodipodi-0.dtd"
   xmlns="http://www.w3.org/2000/svg"
   xmlns:svg="http://www.w3.org/2000/svg">
  <sodipodi:namedview
     id="namedview920"
     pagecolor="#ffffff"
     bordercolor="#666666"
     borderopacity="1.0"
     inkscape:pageshadow="2"
     inkscape:pageopacity="0.0"
     inkscape:pagecheckerboard="0"
     inkscape:document-units="mm"
     showgrid="false"
     inkscape:snap-smooth-nodes="true"
     inkscape:snap-intersection-paths="false"
     inkscape:snap-center="true"
     inkscape:zoom="4"
     inkscape:cx="58.25"
     inkscape:cy="96.875"
     inkscape:window-width="1920"
     inkscape:window-height="1017"
     inkscape:window-x="-8"
     inkscape:window-y="-8"
     inkscape:window-maximized="1"
     inkscape:current-layer="layer1"
     inkscape:snap-midpoints="true"
     lock-margins="true"
     fit-margin-left="1"
     fit-margin-top="1"
     fit-margin-right="1"
     fit-margin-bottom="1" />
  <defs
     id="defs915">
    <marker
       style="overflow:visible"
       id="Arrow1Mend"
       refX="0"
       refY="0"
       orient="auto"
       inkscape:stockid="Arrow1Mend"
       inkscape:isstock="true">
      <path
         transform="matrix(-0.4,0,0,-0.4,-4,0)"
         style="fill:context-stroke;fill-rule:evenodd;stroke:context-stroke;stroke-width:1pt"
         d="M 0,0 5,-5 -12.5,0 5,5 Z"
         id="path1112" />
    </marker>
    <marker
       style="overflow:visible"
       id="marker1409"
       refX="0"
       refY="0"
       orient="auto"
       inkscape:stockid="Arrow2Mend"
       inkscape:isstock="true">
      <path
         transform="scale(-0.6)"
         d="M 8.7185878,4.0337352 -2.2072895,0.01601326 8.7185884,-4.0017078 c -1.7454984,2.3720609 -1.7354408,5.6174519 -6e-7,8.035443 z"
         style="fill:context-stroke;fill-rule:evenodd;stroke-width:0.625;stroke-linejoin:round"
         id="path1407" />
    </marker>
    <marker
       style="overflow:visible"
       id="Arrow2Mend"
       refX="0"
       refY="0"
       orient="auto"
       inkscape:stockid="Arrow2Mend"
       inkscape:isstock="true">
      <path
         transform="scale(-0.6)"
         d="M 8.7185878,4.0337352 -2.2072895,0.01601326 8.7185884,-4.0017078 c -1.7454984,2.3720609 -1.7354408,5.6174519 -6e-7,8.035443 z"
         style="fill:context-stroke;fill-rule:evenodd;stroke-width:0.625;stroke-linejoin:round"
         id="path1130" />
    </marker>
    <marker
       style="overflow:visible"
       id="Arrow2Lend"
       refX="0"
       refY="0"
       orient="auto"
       inkscape:stockid="Arrow2Lend"
       inkscape:isstock="true">
      <path
         transform="matrix(-1.1,0,0,-1.1,-1.1,0)"
         d="M 8.7185878,4.0337352 -2.2072895,0.01601326 8.7185884,-4.0017078 c -1.7454984,2.3720609 -1.7354408,5.6174519 -6e-7,8.035443 z"
         style="fill:context-stroke;fill-rule:evenodd;stroke-width:0.625;stroke-linejoin:round"
         id="path1124" />
    </marker>
    <marker
       style="overflow:visible"
       id="marker1383"
       refX="0"
       refY="0"
       orient="auto"
       inkscape:stockid="Arrow1Lend"
       inkscape:isstock="true">
      <path
         transform="matrix(-0.8,0,0,-0.8,-10,0)"
         style="fill:context-stroke;fill-rule:evenodd;stroke:context-stroke;stroke-width:1pt"
         d="M 0,0 5,-5 -12.5,0 5,5 Z"
         id="path1381" />
    </marker>
    <marker
       style="overflow:visible"
       id="marker1373"
       refX="0"
       refY="0"
       orient="auto"
       inkscape:stockid="Arrow1Lend"
       inkscape:isstock="true">
      <path
         transform="matrix(-0.8,0,0,-0.8,-10,0)"
         style="fill:context-stroke;fill-rule:evenodd;stroke:context-stroke;stroke-width:1pt"
         d="M 0,0 5,-5 -12.5,0 5,5 Z"
         id="path1371" />
    </marker>
    <marker
       style="overflow:visible"
       id="Arrow1Lend"
       refX="0"
       refY="0"
       orient="auto"
       inkscape:stockid="Arrow1Lend"
       inkscape:isstock="true">
      <path
         transform="matrix(-0.8,0,0,-0.8,-10,0)"
         style="fill:context-stroke;fill-rule:evenodd;stroke:context-stroke;stroke-width:1pt"
         d="M 0,0 5,-5 -12.5,0 5,5 Z"
         id="path1106" />
    </marker>
    <marker
       style="overflow:visible"
       refX="0"
       refY="0"
       orient="auto"
       inkscape:stockid="marker84771905"
       inkscape:isstock="true"
       id="marker84771905">
      <path
         transform="matrix(0.4,0,0,0.4,4,0)"
         style="fill:#bfbfbf;fill-rule:evenodd;stroke:#bfbfbf;stroke-width:1pt"
         d="M 0,0 5,-5 -12.5,0 5,5 Z"
         id="path36123" />
    </marker>
    <marker
       style="overflow:visible"
       refX="0"
       refY="0"
       orient="auto"
       inkscape:stockid="marker847719059121"
       inkscape:isstock="true"
       id="marker847719059121">
      <path
         transform="matrix(0.4,0,0,0.4,4,0)"
         style="fill:#bfbfbf;fill-rule:evenodd;stroke:#ff5722;stroke-width:1pt"
         d="M 0,0 5,-5 -12.5,0 5,5 Z"
         id="path18329" />
    </marker>
    <marker
       style="overflow:visible"
       refX="0"
       refY="0"
       orient="auto"
       inkscape:stockid="Arrow1Mend7911"
       inkscape:isstock="true"
       id="Arrow1Mend7911">
      <path
         transform="matrix(-0.4,0,0,-0.4,-4,0)"
         style="fill:#bfbfbf;fill-rule:evenodd;stroke:#ff5722;stroke-width:1pt"
         d="M 0,0 5,-5 -12.5,0 5,5 Z"
         id="path18332" />
    </marker>
    <marker
       style="overflow:visible"
       refX="0"
       refY="0"
       orient="auto"
       inkscape:stockid="marker8477190591217364"
       inkscape:isstock="true"
       id="marker8477190591217364">
      <path
         transform="matrix(0.4,0,0,0.4,4,0)"
         style="fill:#bfbfbf;fill-rule:evenodd;stroke:#ff5722;stroke-width:1pt"
         d="M 0,0 5,-5 -12.5,0 5,5 Z"
         id="path21745" />
    </marker>
    <marker
       style="overflow:visible"
       refX="0"
       refY="0"
       orient="auto"
       inkscape:stockid="Arrow1Mend79118169"
       inkscape:isstock="true"
       id="Arrow1Mend79118169">
      <path
         transform="matrix(-0.4,0,0,-0.4,-4,0)"
         style="fill:#bfbfbf;fill-rule:evenodd;stroke:#ff5722;stroke-width:1pt"
         d="M 0,0 5,-5 -12.5,0 5,5 Z"
         id="path21748" />
    </marker>
    <marker
       style="overflow:visible"
       refX="0"
       refY="0"
       orient="auto"
       inkscape:stockid="marker84771905912173649923"
       inkscape:isstock="true"
       id="marker84771905912173649923">
      <path
         transform="matrix(0.4,0,0,0.4,4,0)"
         style="fill:#bfbfbf;fill-rule:evenodd;stroke:#bfbfbf;stroke-width:1pt"
         d="M 0,0 5,-5 -12.5,0 5,5 Z"
         id="path24114" />
    </marker>
    <marker
       style="overflow:visible"
       refX="0"
       refY="0"
       orient="auto"
       inkscape:stockid="Arrow1Mend79118169946"
       inkscape:isstock="true"
       id="Arrow1Mend79118169946">
      <path
         transform="matrix(-0.4,0,0,-0.4,-4,0)"
         style="fill:#bfbfbf;fill-rule:evenodd;stroke:#bfbfbf;stroke-width:1pt"
         d="M 0,0 5,-5 -12.5,0 5,5 Z"
         id="path24117" />
    </marker>
    <marker
       style="overflow:visible"
       refX="0"
       refY="0"
       orient="auto"
       inkscape:stockid="marker847719059121736499233833"
       inkscape:isstock="true"
       id="marker847719059121736499233833">
      <path
         transform="matrix(0.4,0,0,0.4,4,0)"
         style="fill:#bfbfbf;fill-rule:evenodd;stroke:#ff5722;stroke-width:1pt"
         d="M 0,0 5,-5 -12.5,0 5,5 Z"
         id="path35899" />
    </marker>
    <marker
       style="overflow:visible"
       refX="0"
       refY="0"
       orient="auto"
       inkscape:stockid="Arrow1Mend791181699469353"
       inkscape:isstock="true"
       id="Arrow1Mend791181699469353">
      <path
         transform="matrix(-0.4,0,0,-0.4,-4,0)"
         style="fill:#bfbfbf;fill-rule:evenodd;stroke:#ff5722;stroke-width:1pt"
         d="M 0,0 5,-5 -12.5,0 5,5 Z"
         id="path35902" />
    </marker>
    <marker
       style="overflow:visible"
       refX="0"
       refY="0"
       orient="auto"
       inkscape:stockid="marker8477190591217364992338338688"
       inkscape:isstock="true"
       id="marker8477190591217364992338338688">
      <path
         transform="matrix(0.4,0,0,0.4,4,0)"
         style="fill:#bfbfbf;fill-rule:evenodd;stroke:#ff5722;stroke-width:1pt"
         d="M 0,0 5,-5 -12.5,0 5,5 Z"
         id="path36020" />
    </marker>
    <marker
       style="overflow:visible"
       refX="0"
       refY="0"
       orient="auto"
       inkscape:stockid="Arrow1Mend7911816994693533509"
       inkscape:isstock="true"
       id="Arrow1Mend7911816994693533509">
      <path
         transform="matrix(-0.4,0,0,-0.4,-4,0)"
         style="fill:#bfbfbf;fill-rule:evenodd;stroke:#ff5722;stroke-width:1pt"
         d="M 0,0 5,-5 -12.5,0 5,5 Z"
         id="path36023" />
    </marker>
    <marker
       style="overflow:visible"
       refX="0"
       refY="0"
       orient="auto"
       inkscape:stockid="marker84771905912173649923383386883106"
       inkscape:isstock="true"
       id="marker84771905912173649923383386883106">
      <path
         transform="matrix(0.4,0,0,0.4,4,0)"
         style="fill:#bfbfbf;fill-rule:evenodd;stroke:#ff5722;stroke-width:1pt"
         d="M 0,0 5,-5 -12.5,0 5,5 Z"
         id="path36149" />
    </marker>
    <marker
       style="overflow:visible"
       refX="0"
       refY="0"
       orient="auto"
       inkscape:stockid="Arrow1Mend79118169946935335096629"
       inkscape:isstock="true"
       id="Arrow1Mend79118169946935335096629">
      <path
         transform="matrix(-0.4,0,0,-0.4,-4,0)"
         style="fill:#bfbfbf;fill-rule:evenodd;stroke:#ff5722;stroke-width:1pt"
         d="M 0,0 5,-5 -12.5,0 5,5 Z"
         id="path36152" />
    </marker>
    <marker
       style="overflow:visible"
       refX="0"
       refY="0"
       orient="auto"
       inkscape:stockid="marker847719059121736499233833868831062722"
       inkscape:isstock="true"
       id="marker847719059121736499233833868831062722">
      <path
         transform="matrix(0.4,0,0,0.4,4,0)"
         style="fill:#bfbfbf;fill-rule:evenodd;stroke:#ff5722;stroke-width:1pt"
         d="M 0,0 5,-5 -12.5,0 5,5 Z"
         id="path36286" />
    </marker>
    <marker
       style="overflow:visible"
       refX="0"
       refY="0"
       orient="auto"
       inkscape:stockid="Arrow1Mend791181699469353350966295141"
       inkscape:isstock="true"
       id="Arrow1Mend791181699469353350966295141">
      <path
         transform="matrix(-0.4,0,0,-0.4,-4,0)"
         style="fill:#bfbfbf;fill-rule:evenodd;stroke:#ff5722;stroke-width:1pt"
         d="M 0,0 5,-5 -12.5,0 5,5 Z"
         id="path36289" />
    </marker>
    <marker
       style="overflow:visible"
       refX="0"
       refY="0"
       orient="auto"
       inkscape:stockid="marker8477190591217364992338338688310627226729"
       inkscape:isstock="true"
       id="marker8477190591217364992338338688310627226729">
      <path
         transform="matrix(0.4,0,0,0.4,4,0)"
         style="fill:#bfbfbf;fill-rule:evenodd;stroke:#ff5722;stroke-width:1pt"
         d="M 0,0 5,-5 -12.5,0 5,5 Z"
         id="path36577" />
    </marker>
    <marker
       style="overflow:visible"
       refX="0"
       refY="0"
       orient="auto"
       inkscape:stockid="Arrow1Mend7911816994693533509662951411739"
       inkscape:isstock="true"
       id="Arrow1Mend7911816994693533509662951411739">
      <path
         transform="matrix(-0.4,0,0,-0.4,-4,0)"
         style="fill:#bfbfbf;fill-rule:evenodd;stroke:#ff5722;stroke-width:1pt"
         d="M 0,0 5,-5 -12.5,0 5,5 Z"
         id="path36580" />
    </marker>
    <marker
       style="overflow:visible"
       refX="0"
       refY="0"
       orient="auto"
       inkscape:stockid="marker84771905912173649923383386883106272267294196"
       inkscape:isstock="true"
       id="marker84771905912173649923383386883106272267294196">
      <path
         transform="matrix(0.4,0,0,0.4,4,0)"
         style="fill:#ff5722;fill-rule:evenodd;stroke:#ff5722;stroke-width:1pt"
         d="M 0,0 5,-5 -12.5,0 5,5 Z"
         id="path38348" />
    </marker>
    <marker
       style="overflow:visible"
       refX="0"
       refY="0"
       orient="auto"
       inkscape:stockid="Arrow1Mend79118169946935335096629514117392949"
       inkscape:isstock="true"
       id="Arrow1Mend79118169946935335096629514117392949">
      <path
         transform="matrix(-0.4,0,0,-0.4,-4,0)"
         style="fill:#ff5722;fill-rule:evenodd;stroke:#ff5722;stroke-width:1pt"
         d="M 0,0 5,-5 -12.5,0 5,5 Z"
         id="path38351" />
    </marker>
    <marker
       style="overflow:visible"
       refX="0"
       refY="0"
       orient="auto"
       inkscape:stockid="marker847719059121736499233833868831062722672941966180"
       inkscape:isstock="true"
       id="marker847719059121736499233833868831062722672941966180">
      <path
         transform="matrix(0.4,0,0,0.4,4,0)"
         style="fill:#ff5722;fill-rule:evenodd;stroke:#ff5722;stroke-width:1pt"
         d="M 0,0 5,-5 -12.5,0 5,5 Z"
         id="path38509" />
    </marker>
    <marker
       style="overflow:visible"
       refX="0"
       refY="0"
       orient="auto"
       inkscape:stockid="Arrow1Mend791181699469353350966295141173929492745"
       inkscape:isstock="true"
       id="Arrow1Mend791181699469353350966295141173929492745">
      <path
         transform="matrix(-0.4,0,0,-0.4,-4,0)"
         style="fill:#ff5722;fill-rule:evenodd;stroke:#ff5722;stroke-width:1pt"
         d="M 0,0 5,-5 -12.5,0 5,5 Z"
         id="path38512" />
    </marker>
  </defs>
  <g
     inkscape:label="Слой 1"
     inkscape:groupmode="layer"
     id="layer1"
     transform="translate(-73.42688,-128.27559)">
    <path
       id="path1669"
       style="fill:none;stroke:#bfbfbf;stroke-width:0.529167;stroke-linecap:round;stroke-opacity:1"
       d="m 114.85335,153.44429 a 6.9698386,7.1399392 0 0 1 -3.48492,-6.18337 6.9698386,7.1399392 0 0 1 3.48492,-6.18337 l 3.48492,6.18337 z" />
    <path
       id="path1281"
       style="fill:none;stroke:#bfbfbf;stroke-width:1.32292;stroke-linecap:round;stroke-linejoin:miter;stroke-miterlimit:4;stroke-dasharray:none;stroke-opacity:1"
       d="m 75.08834,129.93705 h 33.24799 l 10.00194,17.32387 -10.00194,17.32391 H 75.08834" />
    <path
       style="fill:none;fill-opacity:1;fill-rule:nonzero;stroke:#ff5722;stroke-width:0.529166;stroke-linecap:butt;stroke-linejoin:miter;stroke-miterlimit:4;stroke-dasharray:none;stroke-opacity:1;marker-start:url(#marker847719059121736499233833868831062722672941966180);marker-end:url(#Arrow1Mend791181699469353350966295141173929492745)"
       d="m 91.712306,131.61764 4.5e-5,31.43627"
       id="path1169"
       inkscape:export-filename="C:\Users\V\Desktop\path3043.png"
       inkscape:export-xdpi="300"
       inkscape:export-ydpi="300" />
    <path
       style="fill:none;stroke:#bfbfbf;stroke-width:0.264583px;stroke-linecap:butt;stroke-linejoin:miter;stroke-opacity:1"
       d="m 108.2831,131.05895 9.34568,16.20195 -9.34568,16.20198"
       id="path8367" />
  </g>
</svg>
