<?xml version="1.0" encoding="UTF-8" standalone="no"?>
<!-- Created with Inkscape (http://www.inkscape.org/) -->

<svg
   sodipodi:docname="int_chamfer_angle.svg"
   inkscape:version="1.1 (c68e22c387, 2021-05-23)"
   id="svg43512"
   version="1.1"
   viewBox="0 0 90.681671 59.823622"
   height="59.823624mm"
   width="90.681671mm"
   xmlns:inkscape="http://www.inkscape.org/namespaces/inkscape"
   xmlns:sodipodi="http://sodipodi.sourceforge.net/DTD/sodipodi-0.dtd"
   xmlns="http://www.w3.org/2000/svg"
   xmlns:svg="http://www.w3.org/2000/svg">
  <sodipodi:namedview
     id="namedview43514"
     pagecolor="#ffffff"
     bordercolor="#666666"
     borderopacity="1.0"
     inkscape:pageshadow="2"
     inkscape:pageopacity="0.0"
     inkscape:pagecheckerboard="0"
     inkscape:document-units="mm"
     showgrid="false"
     lock-margins="true"
     scale-x="1"
     fit-margin-top="1"
     fit-margin-left="1"
     fit-margin-right="1"
     fit-margin-bottom="1"
     inkscape:zoom="1"
     inkscape:cx="124.5"
     inkscape:cy="172.5"
     inkscape:window-width="1920"
     inkscape:window-height="1017"
     inkscape:window-x="-8"
     inkscape:window-y="-8"
     inkscape:window-maximized="1"
     inkscape:current-layer="layer1" />
  <defs
     id="defs43509">
    <marker
       style="overflow:visible"
       id="Arrow1Mend"
       refX="0"
       refY="0"
       orient="auto"
       inkscape:stockid="Arrow1Mend"
       inkscape:isstock="true">
      <path
         transform="matrix(-0.4,0,0,-0.4,-4,0)"
         style="fill:context-stroke;fill-rule:evenodd;stroke:context-stroke;stroke-width:1pt"
         d="M 0,0 5,-5 -12.5,0 5,5 Z"
         id="path9195" />
    </marker>
    <marker
       style="overflow:visible"
       id="marker9854"
       refX="0"
       refY="0"
       orient="auto"
       inkscape:stockid="Arrow1Mstart"
       inkscape:isstock="true">
      <path
         transform="matrix(0.4,0,0,0.4,4,0)"
         style="fill:context-stroke;fill-rule:evenodd;stroke:context-stroke;stroke-width:1pt"
         d="M 0,0 5,-5 -12.5,0 5,5 Z"
         id="path9852" />
    </marker>
    <marker
       style="overflow:visible"
       id="marker11075"
       refX="0"
       refY="0"
       orient="auto"
       inkscape:stockid="Arrow1Mstart"
       inkscape:isstock="true">
      <path
         transform="matrix(0.4,0,0,0.4,4,0)"
         style="fill:context-stroke;fill-rule:evenodd;stroke:context-stroke;stroke-width:1pt"
         d="M 0,0 5,-5 -12.5,0 5,5 Z"
         id="path11073" />
    </marker>
    <marker
       style="overflow:visible"
       id="marker43493"
       refX="0"
       refY="0"
       orient="auto"
       inkscape:stockid="Arrow1Mstart"
       inkscape:isstock="true">
      <path
         transform="matrix(0.4,0,0,0.4,4,0)"
         style="fill:context-stroke;fill-rule:evenodd;stroke:context-stroke;stroke-width:1pt"
         d="M 0,0 5,-5 -12.5,0 5,5 Z"
         id="path43491" />
    </marker>
    <marker
       style="overflow:visible"
       refX="0"
       refY="0"
       orient="auto"
       inkscape:stockid="marker110756800"
       inkscape:isstock="true"
       id="marker110756800">
      <path
         transform="matrix(0.4,0,0,0.4,4,0)"
         style="fill:#ff5722;fill-rule:evenodd;stroke:#ff5722;stroke-width:1pt"
         d="M 0,0 5,-5 -12.5,0 5,5 Z"
         id="path44066" />
    </marker>
    <marker
       style="overflow:visible"
       refX="0"
       refY="0"
       orient="auto"
       inkscape:stockid="Arrow1Mend4201"
       inkscape:isstock="true"
       id="Arrow1Mend4201">
      <path
         transform="matrix(-0.4,0,0,-0.4,-4,0)"
         style="fill:#bfbfbf;fill-rule:evenodd;stroke:#bfbfbf;stroke-width:1pt"
         d="M 0,0 5,-5 -12.5,0 5,5 Z"
         id="path48518" />
    </marker>
    <marker
       style="overflow:visible"
       refX="0"
       refY="0"
       orient="auto"
       inkscape:stockid="marker9854416"
       inkscape:isstock="true"
       id="marker9854416">
      <path
         transform="matrix(0.4,0,0,0.4,4,0)"
         style="fill:#bfbfbf;fill-rule:evenodd;stroke:#bfbfbf;stroke-width:1pt"
         d="M 0,0 5,-5 -12.5,0 5,5 Z"
         id="path48521" />
    </marker>
    <marker
       style="overflow:visible"
       refX="0"
       refY="0"
       orient="auto"
       inkscape:stockid="marker110751425"
       inkscape:isstock="true"
       id="marker110751425">
      <path
         transform="matrix(0.4,0,0,0.4,4,0)"
         style="fill:#bfbfbf;fill-rule:evenodd;stroke:#bfbfbf;stroke-width:1pt"
         d="M 0,0 5,-5 -12.5,0 5,5 Z"
         id="path48524" />
    </marker>
    <marker
       style="overflow:visible"
       refX="0"
       refY="0"
       orient="auto"
       inkscape:stockid="Arrow1Mend4201588"
       inkscape:isstock="true"
       id="Arrow1Mend4201588">
      <path
         transform="matrix(-0.4,0,0,-0.4,-4,0)"
         style="fill:#bfbfbf;fill-rule:evenodd;stroke:#bfbfbf;stroke-width:1pt"
         d="M 0,0 5,-5 -12.5,0 5,5 Z"
         id="path48667" />
    </marker>
    <marker
       style="overflow:visible"
       refX="0"
       refY="0"
       orient="auto"
       inkscape:stockid="marker98544167500"
       inkscape:isstock="true"
       id="marker98544167500">
      <path
         transform="matrix(0.4,0,0,0.4,4,0)"
         style="fill:#bfbfbf;fill-rule:evenodd;stroke:#bfbfbf;stroke-width:1pt"
         d="M 0,0 5,-5 -12.5,0 5,5 Z"
         id="path48670" />
    </marker>
    <marker
       style="overflow:visible"
       refX="0"
       refY="0"
       orient="auto"
       inkscape:stockid="marker1107514251340"
       inkscape:isstock="true"
       id="marker1107514251340">
      <path
         transform="matrix(0.4,0,0,0.4,4,0)"
         style="fill:#bfbfbf;fill-rule:evenodd;stroke:#bfbfbf;stroke-width:1pt"
         d="M 0,0 5,-5 -12.5,0 5,5 Z"
         id="path48673" />
    </marker>
    <marker
       style="overflow:visible"
       refX="0"
       refY="0"
       orient="auto"
       inkscape:stockid="marker1107568001458"
       inkscape:isstock="true"
       id="marker1107568001458">
      <path
         transform="matrix(0.4,0,0,0.4,4,0)"
         style="fill:#bfbfbf;fill-rule:evenodd;stroke:#bfbfbf;stroke-width:1pt"
         d="M 0,0 5,-5 -12.5,0 5,5 Z"
         id="path48676" />
    </marker>
    <marker
       style="overflow:visible"
       refX="0"
       refY="0"
       orient="auto"
       inkscape:stockid="marker11075680014585098"
       inkscape:isstock="true"
       id="marker11075680014585098">
      <path
         transform="matrix(0.4,0,0,0.4,4,0)"
         style="fill:#ff5722;fill-rule:evenodd;stroke:#ff5722;stroke-width:1pt"
         d="M 0,0 5,-5 -12.5,0 5,5 Z"
         id="path81987" />
    </marker>
    <marker
       style="overflow:visible"
       refX="0"
       refY="0"
       orient="auto"
       inkscape:stockid="marker110756800145850988713"
       inkscape:isstock="true"
       id="marker110756800145850988713">
      <path
         transform="matrix(0.4,0,0,0.4,4,0)"
         style="fill:#bfbfbf;fill-rule:evenodd;stroke:#bfbfbf;stroke-width:1pt"
         d="M 0,0 5,-5 -12.5,0 5,5 Z"
         id="path85306" />
    </marker>
    <marker
       style="overflow:visible"
       refX="0"
       refY="0"
       orient="auto"
       inkscape:stockid="marker11075142513409016"
       inkscape:isstock="true"
       id="marker11075142513409016">
      <path
         transform="matrix(0.4,0,0,0.4,4,0)"
         style="fill:#bfbfbf;fill-rule:evenodd;stroke:#bfbfbf;stroke-width:1pt"
         d="M 0,0 5,-5 -12.5,0 5,5 Z"
         id="path85309" />
    </marker>
    <marker
       style="overflow:visible"
       refX="0"
       refY="0"
       orient="auto"
       inkscape:stockid="Arrow1Mend42015883112"
       inkscape:isstock="true"
       id="Arrow1Mend42015883112">
      <path
         transform="matrix(-0.4,0,0,-0.4,-4,0)"
         style="fill:#ff5722;fill-rule:evenodd;stroke:#ff5722;stroke-width:1pt"
         d="M 0,0 5,-5 -12.5,0 5,5 Z"
         id="path88328" />
    </marker>
    <marker
       style="overflow:visible"
       refX="0"
       refY="0"
       orient="auto"
       inkscape:stockid="marker985441675007868"
       inkscape:isstock="true"
       id="marker985441675007868">
      <path
         transform="matrix(0.4,0,0,0.4,4,0)"
         style="fill:#ff5722;fill-rule:evenodd;stroke:#ff5722;stroke-width:1pt"
         d="M 0,0 5,-5 -12.5,0 5,5 Z"
         id="path88331" />
    </marker>
    <marker
       style="overflow:visible"
       refX="0"
       refY="0"
       orient="auto"
       inkscape:stockid="Arrow1Mend420158831122761"
       inkscape:isstock="true"
       id="Arrow1Mend420158831122761">
      <path
         transform="matrix(-0.4,0,0,-0.4,-4,0)"
         style="fill:#bfbfbf;fill-rule:evenodd;stroke:#bfbfbf;stroke-width:1pt"
         d="M 0,0 5,-5 -12.5,0 5,5 Z"
         id="path94840" />
    </marker>
    <marker
       style="overflow:visible"
       refX="0"
       refY="0"
       orient="auto"
       inkscape:stockid="marker9854416750078686232"
       inkscape:isstock="true"
       id="marker9854416750078686232">
      <path
         transform="matrix(0.4,0,0,0.4,4,0)"
         style="fill:#bfbfbf;fill-rule:evenodd;stroke:#bfbfbf;stroke-width:1pt"
         d="M 0,0 5,-5 -12.5,0 5,5 Z"
         id="path94843" />
    </marker>
    <marker
       style="overflow:visible"
       refX="0"
       refY="0"
       orient="auto"
       inkscape:stockid="marker1068094303"
       inkscape:isstock="true"
       id="marker1068094303">
      <path
         transform="matrix(-0.4,0,0,-0.4,-4,0)"
         style="fill:#bfbfbf;fill-rule:evenodd;stroke:#bfbfbf;stroke-width:1pt"
         d="M 0,0 5,-5 -12.5,0 5,5 Z"
         id="path23965" />
    </marker>
    <marker
       style="overflow:visible"
       refX="0"
       refY="0"
       orient="auto"
       inkscape:stockid="marker84774263"
       inkscape:isstock="true"
       id="marker84774263">
      <path
         transform="matrix(0.4,0,0,0.4,4,0)"
         style="fill:#bfbfbf;fill-rule:evenodd;stroke:#bfbfbf;stroke-width:1pt"
         d="M 0,0 5,-5 -12.5,0 5,5 Z"
         id="path23968" />
    </marker>
    <marker
       style="overflow:visible"
       refX="0"
       refY="0"
       orient="auto"
       inkscape:stockid="marker84777307"
       inkscape:isstock="true"
       id="marker84777307">
      <path
         transform="matrix(0.4,0,0,0.4,4,0)"
         style="fill:#bfbfbf;fill-rule:evenodd;stroke:#bfbfbf;stroke-width:1pt"
         d="M 0,0 5,-5 -12.5,0 5,5 Z"
         id="path23971" />
    </marker>
    <marker
       style="overflow:visible"
       refX="0"
       refY="0"
       orient="auto"
       inkscape:stockid="marker84771905"
       inkscape:isstock="true"
       id="marker84771905-5">
      <path
         transform="matrix(0.4,0,0,0.4,4,0)"
         style="fill:#bfbfbf;fill-rule:evenodd;stroke:#bfbfbf;stroke-width:1pt"
         d="M 0,0 5,-5 -12.5,0 5,5 Z"
         id="path36123-8" />
    </marker>
    <marker
       style="overflow:visible"
       refX="0"
       refY="0"
       orient="auto"
       inkscape:stockid="marker84771905"
       inkscape:isstock="true"
       id="marker84771905-5-0">
      <path
         transform="matrix(0.4,0,0,0.4,4,0)"
         style="fill:#bfbfbf;fill-rule:evenodd;stroke:#bfbfbf;stroke-width:1pt"
         d="M 0,0 5,-5 -12.5,0 5,5 Z"
         id="path36123-8-6" />
    </marker>
    <marker
       style="overflow:visible"
       refX="0"
       refY="0"
       orient="auto"
       inkscape:stockid="marker11075142513406139"
       inkscape:isstock="true"
       id="marker11075142513406139">
      <path
         transform="matrix(0.4,0,0,0.4,4,0)"
         style="fill:#ff5722;fill-rule:evenodd;stroke:#ff5722;stroke-width:1pt"
         d="M 0,0 5,-5 -12.5,0 5,5 Z"
         id="path71280" />
    </marker>
  </defs>
  <g
     inkscape:label="Слой 1"
     inkscape:groupmode="layer"
     id="layer1"
     transform="translate(17.824168,-50.256938)">
    <path
       id="path1147"
       style="fill:none;stroke:#bfbfbf;stroke-width:1.32292;stroke-linecap:round;stroke-linejoin:miter;stroke-miterlimit:4;stroke-dasharray:none;stroke-opacity:1;paint-order:normal"
       d="m 23.180384,51.918771 v 22.79191"
       inkscape:export-filename="C:\Users\V\Desktop\path3043.png"
       inkscape:export-xdpi="300"
       inkscape:export-ydpi="300" />
    <path
       id="path1161"
       style="fill:none;stroke:#bfbfbf;stroke-width:1.32292;stroke-linecap:round;stroke-linejoin:miter;stroke-miterlimit:4;stroke-dasharray:none;stroke-opacity:1;paint-order:normal"
       d="M 13.683348,84.207254 H -16.162708"
       inkscape:export-filename="C:\Users\V\Desktop\path3043.png"
       inkscape:export-xdpi="300"
       inkscape:export-ydpi="300" />
    <path
       style="fill:none;stroke:#bfbfbf;stroke-width:1.32292;stroke-linecap:butt;stroke-linejoin:miter;stroke-miterlimit:4;stroke-dasharray:none;stroke-opacity:1;paint-order:normal"
       d="M 23.320773,74.768681 13.824165,84.26528"
       id="path1163"
       inkscape:export-filename="C:\Users\V\Desktop\path3043.png"
       inkscape:export-xdpi="300"
       inkscape:export-ydpi="300" />
    <path
       style="fill:none;stroke:#bfbfbf;stroke-width:0.528998;stroke-linecap:square;stroke-linejoin:miter;stroke-miterlimit:4;stroke-dasharray:none;stroke-opacity:1"
       d="m 14.104633,84.5462 -0.890471,0.890464"
       id="path1165"
       inkscape:export-filename="C:\Users\V\Desktop\path3043.png"
       inkscape:export-xdpi="300"
       inkscape:export-ydpi="300" />
    <path
       id="path8938"
       style="fill:none;stroke:#bfbfbf;stroke-width:1.32292;stroke-linecap:round;stroke-linejoin:miter;stroke-miterlimit:4;stroke-dasharray:none;stroke-opacity:1;paint-order:normal"
       d="m 23.180384,51.918398 v 22.79203"
       inkscape:export-filename="C:\Users\V\Desktop\path3043.png"
       inkscape:export-xdpi="300"
       inkscape:export-ydpi="300" />
    <path
       id="path8964"
       style="font-variation-settings:'wdth' 100, 'wght' 400;fill:none;fill-rule:evenodd;stroke:#bfbfbf;stroke-width:1.32292;stroke-linecap:round;stroke-miterlimit:4;stroke-dasharray:none;stroke-opacity:1"
       d="m 40.401048,106.55749 c 0,0 0,0 0,0 L 37.99566,79.120018 a -6.2468045,6.2468045 0 0 1 9.345374,-5.95604 l 23.855009,13.7671" />
    <path
       style="fill:none;stroke:#ff5722;stroke-width:0.529;stroke-linecap:round;stroke-linejoin:round;stroke-miterlimit:4;stroke-dasharray:none;stroke-opacity:1"
       d="m 14.104633,84.5462 -24.608859,6.7e-5"
       id="path8954-9"
       inkscape:export-filename="C:\Users\V\Desktop\path3043.png"
       inkscape:export-xdpi="300"
       inkscape:export-ydpi="300" />
    <path
       style="fill:none;stroke:#ff5722;stroke-width:0.529;stroke-linecap:round;stroke-linejoin:round;stroke-miterlimit:4;stroke-dasharray:none;stroke-opacity:1"
       d="M 14.104633,84.5462 -3.2964099,101.94734"
       id="path8954"
       inkscape:export-filename="C:\Users\V\Desktop\path3043.png"
       inkscape:export-xdpi="300"
       inkscape:export-ydpi="300" />
    <path
       id="path8956"
       style="font-variation-settings:'wdth' 100, 'wght' 400;fill:none;fill-rule:evenodd;stroke:#ff5722;stroke-width:0.529;stroke-linecap:round;stroke-linejoin:round;stroke-miterlimit:4;stroke-dasharray:none;stroke-opacity:1"
       d="M 9.273511,89.34503 A 6.8322388,6.7865342 0 0 1 7.272395,84.5462 h 6.832238 z"
       inkscape:export-filename="C:\Users\V\Desktop\path3043.png"
       inkscape:export-xdpi="300"
       inkscape:export-ydpi="300" />
  </g>
</svg>
